<svg width="293" height="210" viewBox="0 0 293 210" fill="none" xmlns="http://www.w3.org/2000/svg">
<path d="M68.86 88.105C65.5167 88.105 62.315 87.5808 59.255 86.5325C56.195 85.4558 53.5175 83.9258 51.2225 81.9425C48.9275 79.9308 47.27 77.5367 46.25 74.76L58.235 70.34C58.5183 71.1617 59.1417 71.955 60.105 72.72C61.0967 73.485 62.3433 74.1225 63.845 74.6325C65.3467 75.1142 67.0183 75.355 68.86 75.355C70.56 75.355 72.1608 75.1142 73.6625 74.6325C75.1642 74.1225 76.3825 73.4283 77.3175 72.55C78.2525 71.6717 78.72 70.6517 78.72 69.49C78.72 68.3 78.2242 67.3225 77.2325 66.5575C76.2692 65.7642 75.0225 65.1408 73.4925 64.6875C71.9908 64.2058 70.4467 63.8517 68.86 63.625C64.5533 63.0017 60.6858 61.9817 57.2575 60.565C53.8575 59.12 51.1658 57.1367 49.1825 54.615C47.2275 52.0933 46.25 48.8917 46.25 45.01C46.25 41.2983 47.2983 38.0542 49.395 35.2775C51.4917 32.4725 54.2542 30.2908 57.6825 28.7325C61.1392 27.1742 64.865 26.395 68.86 26.395C72.2033 26.395 75.405 26.9333 78.465 28.01C81.5533 29.0583 84.245 30.5883 86.54 32.6C88.835 34.6117 90.4783 37.02 91.47 39.825L79.485 44.16C79.2017 43.3383 78.5642 42.5592 77.5725 41.8225C76.6092 41.0575 75.3767 40.4342 73.875 39.9525C72.3733 39.4708 70.7017 39.23 68.86 39.23C67.2167 39.2017 65.6442 39.4425 64.1425 39.9525C62.6408 40.4625 61.4083 41.1567 60.445 42.035C59.4817 42.9133 59 43.905 59 45.01C59 46.54 59.4533 47.6875 60.36 48.4525C61.2667 49.1892 62.4567 49.7133 63.93 50.025C65.4317 50.3367 67.075 50.62 68.86 50.875C72.94 51.47 76.6942 52.5325 80.1225 54.0625C83.5508 55.5925 86.2992 57.6325 88.3675 60.1825C90.4358 62.7325 91.47 65.835 91.47 69.49C91.47 73.2017 90.4217 76.46 88.325 79.265C86.2567 82.0417 83.5083 84.2092 80.08 85.7675C76.6517 87.3258 72.9117 88.105 68.86 88.105ZM144.196 27.5V40.25H127.196V87H114.446V40.25H97.4459V27.5H144.196ZM189.151 27.5H204.196L183.541 60.225V87H170.791V60.225L150.136 27.5H165.181L177.166 46.37L189.151 27.5ZM208.882 87V27.5H221.632V74.25H245.007V87H208.882ZM254.371 87V27.5H292.281V40.25H267.121V48.75H286.501V61.5H267.121V74.25H292.281V87H254.371Z" fill="#CC00AB"/>
<path d="M92.15 129.5V142.25H75.15V189H62.4V142.25H45.4V129.5H92.15ZM101.915 189V129.5H114.665V189H101.915ZM126.123 189L137.683 129.5H148.563L161.908 164.605L175.253 129.5H186.133L197.693 189H184.688L178.483 156.87L166.328 189H157.488L145.333 156.87L139.128 189H126.123ZM206.143 189V129.5H244.053V142.25H218.893V150.75H238.273V163.5H218.893V176.25H244.053V189H206.143Z" fill="black"/>
<rect width="20" height="210" fill="black"/>
</svg>
