<svg width="49" height="50" viewBox="0 0 49 50" fill="none" xmlns="http://www.w3.org/2000/svg">
<path d="M47.4897 1.01042L2.37932 1.47547C1.49343 1.4846 1.05607 2.55607 1.68252 3.18252L46.7929 48.2929C47.4229 48.9229 48.5 48.4767 48.5 47.5858V2.01036C48.5 1.45405 48.046 1.00468 47.4897 1.01042Z" fill="#9A2CE1" stroke="#9A2CE1"/>
<path d="M33.7917 19.6634L37.1386 21.7884C37.5702 22.0607 38.1015 21.6556 37.9753 21.1576L37.0058 17.3459C36.9796 17.2402 36.9837 17.1293 37.0178 17.0259C37.0519 16.9225 37.1145 16.8309 37.1984 16.7615L40.1999 14.258C40.5917 13.9326 40.3925 13.2752 39.8812 13.242L35.9632 12.9896C35.8563 12.9834 35.7535 12.9462 35.6674 12.8825C35.5814 12.8188 35.5157 12.7314 35.4784 12.631L34.0175 8.95212C33.9788 8.8458 33.9084 8.75396 33.8157 8.68906C33.7231 8.62417 33.6127 8.58936 33.4995 8.58936C33.3864 8.58936 33.276 8.62417 33.1834 8.68906C33.0907 8.75396 33.0202 8.8458 32.9816 8.95212L31.5206 12.631C31.4834 12.7314 31.4177 12.8188 31.3316 12.8825C31.2455 12.9462 31.1428 12.9834 31.0359 12.9896L27.1179 13.242C26.6066 13.2752 26.4074 13.9326 26.7991 14.258L29.8007 16.7615C29.8846 16.8309 29.9472 16.9225 29.9813 17.0259C30.0153 17.1293 30.0195 17.2402 29.9933 17.3459L29.0968 20.8787C28.9441 21.4763 29.5816 21.9611 30.0929 21.6357L33.2074 19.6634C33.2947 19.6079 33.396 19.5784 33.4995 19.5784C33.603 19.5784 33.7044 19.6079 33.7917 19.6634Z" fill="white"/>
</svg>
